<?xml version="1.0" standalone="no"?>
<!DOCTYPE svg PUBLIC "-//W3C//DTD SVG 20010904//EN"
 "http://www.w3.org/TR/2001/REC-SVG-20010904/DTD/svg10.dtd">
<svg version="1.0" xmlns="http://www.w3.org/2000/svg"
 width="316.000000pt" height="512.000000pt" viewBox="0 0 316.000000 512.000000"
 preserveAspectRatio="xMidYMid meet">

<g transform="translate(0.000000,512.000000) scale(0.100000,-0.100000)"
fill="#000000" stroke="none">
<path d="M1047 5103 c-8 -10 -19 -31 -23 -46 -3 -16 -14 -31 -23 -35 -9 -3
-28 -14 -43 -25 -26 -19 -26 -19 -49 2 -16 15 -26 18 -35 10 -7 -6 -10 -17 -7
-25 7 -18 -40 -36 -73 -28 -20 5 -24 12 -24 44 0 21 7 43 15 50 14 11 21 40
10 40 -22 0 -55 -29 -77 -70 -21 -37 -38 -53 -73 -69 -25 -11 -45 -24 -45 -29
0 -22 67 -30 100 -12 10 5 54 12 97 15 l78 6 -36 -33 c-70 -64 -112 -98 -121
-98 -4 0 -47 -26 -94 -57 -48 -32 -98 -65 -111 -75 -37 -24 -99 -116 -113
-166 -15 -59 -5 -118 42 -235 38 -94 39 -100 28 -150 -15 -67 -10 -121 11
-125 34 -6 78 46 99 118 25 85 43 103 63 63 8 -15 19 -45 25 -65 11 -39 0 -59
-53 -94 -15 -10 -30 -36 -41 -72 -10 -31 -21 -59 -24 -62 -8 -6 -22 -93 -21
-134 1 -35 -11 -51 -59 -81 -41 -26 -97 -79 -125 -118 -11 -15 -24 -27 -30
-27 -6 0 -16 -9 -23 -20 -7 -11 -19 -20 -27 -20 -18 0 -20 -37 -3 -42 8 -3 8
-16 -2 -50 -8 -26 -17 -45 -21 -43 -10 7 -40 -31 -37 -46 2 -8 -7 -15 -19 -17
-15 -2 -23 -10 -23 -23 0 -10 -7 -19 -15 -19 -8 0 -15 -7 -15 -15 0 -8 4 -15
9 -15 5 0 12 -21 16 -46 5 -35 3 -50 -9 -63 -22 -25 -20 -87 3 -110 16 -16 18
-26 11 -53 -5 -18 -11 -60 -15 -94 -6 -53 -24 -111 -25 -77 0 21 -68 12 -74
-9 -5 -22 7 -23 24 -3 7 8 17 15 22 15 6 0 5 -7 -2 -15 -11 -14 -7 -19 13 -16
12 2 8 -17 -7 -31 -11 -10 -9 -16 10 -31 30 -23 30 -50 1 -74 -34 -27 -38 -38
-26 -73 9 -23 14 -28 20 -18 5 7 6 21 3 31 -7 22 12 47 37 47 20 0 26 -25 8
-35 -6 -4 -8 -13 -5 -21 3 -8 1 -14 -3 -14 -5 0 -11 6 -14 13 -3 6 -4 -4 -3
-23 1 -24 7 -37 20 -43 18 -7 17 -10 -14 -38 l-33 -31 25 -16 c14 -9 23 -22
21 -29 -2 -6 1 -14 6 -18 6 -3 11 -1 11 6 0 9 3 10 11 2 7 -7 7 -23 -2 -53
-10 -33 -10 -43 0 -49 8 -5 0 -19 -28 -44 -37 -33 -45 -36 -89 -33 -44 3 -49
1 -44 -16 4 -15 7 -16 20 -6 13 11 15 10 9 -6 -6 -15 -4 -17 10 -11 10 4 27
10 38 13 11 3 29 11 40 19 28 19 37 16 24 -8 -9 -17 -8 -23 2 -30 8 -5 17 -3
21 4 5 7 8 1 8 -15 0 -18 -5 -28 -15 -28 -7 0 -18 -6 -22 -14 -9 -16 -76 -37
-90 -27 -6 3 -13 13 -16 21 -3 9 -6 5 -6 -10 -1 -14 -8 -35 -16 -47 -12 -17
-12 -27 -4 -53 9 -23 9 -38 0 -56 -6 -15 -11 -81 -11 -158 0 -141 7 -199 21
-190 5 3 7 10 4 15 -3 5 1 6 9 3 9 -3 16 -14 16 -24 0 -21 22 -39 27 -23 5 15
43 4 43 -12 0 -8 7 -21 16 -30 27 -26 8 -29 -38 -5 -103 53 -98 51 -98 29 0
-13 8 -23 21 -26 15 -4 19 -11 15 -25 -2 -11 -2 -17 1 -14 4 3 12 1 20 -5 17
-14 17 -61 1 -57 -45 8 -71 -29 -49 -70 5 -9 12 -25 15 -35 4 -13 12 -17 25
-12 26 8 61 -15 61 -40 1 -24 45 -59 62 -49 7 4 8 3 4 -4 -4 -6 -1 -20 6 -31
17 -28 5 -35 -36 -20 -34 12 -37 11 -64 -14 -15 -15 -35 -27 -44 -27 -9 0 -18
-7 -21 -15 -5 -11 -1 -12 20 -4 31 12 63 3 63 -17 0 -10 -5 -12 -12 -8 -14 8
10 -26 26 -38 14 -10 18 -49 5 -64 -6 -7 -9 -21 -6 -31 4 -14 5 -14 6 4 1 29
16 37 34 18 9 -8 23 -15 31 -15 27 0 18 24 -14 38 -29 13 -44 40 -17 29 7 -3
19 4 26 15 12 19 13 19 32 2 10 -9 19 -27 19 -40 0 -17 4 -21 20 -17 11 3 32
2 47 -2 21 -5 24 -8 12 -16 -12 -8 -11 -11 4 -20 18 -11 24 -39 7 -39 -5 0
-10 5 -10 10 0 6 -10 10 -23 10 -19 0 -23 -6 -25 -37 -3 -36 -36 -81 -55 -75
-5 1 -6 -2 -2 -8 6 -10 22 -8 61 7 6 2 14 -3 17 -11 8 -20 -2 -48 -14 -40 -5
3 -12 -1 -15 -9 -5 -15 -27 -17 -40 -4 -15 15 -53 7 -58 -13 -19 -64 -20 -60
13 -54 26 6 31 3 31 -13 0 -10 -5 -24 -12 -31 -9 -9 -9 -12 0 -12 7 0 12 -7
12 -15 0 -8 9 -20 20 -27 11 -7 20 -16 20 -20 0 -11 -54 -2 -58 11 -2 6 -9 11
-16 11 -7 0 -17 5 -23 11 -7 7 -28 13 -47 15 -30 3 -36 0 -36 -16 0 -11 5 -20
10 -20 6 0 10 -9 10 -20 0 -19 1 -20 25 -4 24 16 51 11 40 -7 -4 -5 -1 -9 4
-9 15 0 14 -20 -3 -53 -15 -27 -14 -27 17 -28 18 -1 35 -1 40 0 4 0 7 -3 7 -8
0 -5 6 -16 13 -23 14 -14 57 -86 57 -94 0 -3 -9 -2 -21 1 -20 7 -59 -18 -59
-36 0 -4 24 -9 52 -11 49 -3 53 -5 50 -26 -1 -16 2 -22 10 -18 7 3 20 9 29 12
15 5 15 9 3 32 -9 19 -10 30 -2 39 14 17 25 9 33 -27 7 -33 20 -37 60 -16 17
9 22 16 13 19 -7 3 -2 6 13 6 14 1 31 7 38 14 10 10 16 7 32 -12 l19 -23 0 24
c0 13 -5 29 -11 35 -7 7 -4 12 10 16 14 3 21 0 21 -9 0 -25 27 -15 32 11 5 21
2 25 -13 20 -30 -10 -22 13 10 29 16 9 38 28 50 43 l21 28 -7 -34 c-3 -19 -18
-45 -32 -57 -28 -25 -22 -41 17 -49 12 -2 27 -7 32 -10 6 -3 10 -1 10 4 0 6 9
11 21 11 11 0 17 4 14 10 -3 5 2 10 12 11 11 0 13 3 5 6 -6 2 -10 9 -7 13 3 5
12 7 20 3 8 -3 15 -1 15 4 0 6 10 15 23 21 12 6 16 11 10 11 -7 1 -13 8 -13
16 0 8 -6 15 -12 15 -7 0 -5 5 5 11 12 7 16 17 12 30 -4 10 -3 39 1 64 5 35
10 45 25 45 11 0 19 -7 19 -17 0 -38 23 7 24 46 0 30 4 40 14 36 7 -2 10 -1 7
5 -7 11 32 33 49 27 6 -3 21 2 31 10 14 11 16 17 7 20 -8 3 -4 11 12 24 30 24
36 24 36 0 0 -11 3 -22 8 -24 13 -8 52 12 52 28 0 19 60 21 60 3 0 -7 8 -3 18
9 19 25 28 22 61 -25 18 -26 29 -32 59 -32 20 0 44 4 51 9 12 8 8 13 -18 28
-18 10 -42 25 -54 34 l-21 16 22 23 c21 23 22 23 43 4 12 -10 23 -18 25 -16 8
5 59 -43 62 -59 2 -7 10 -18 18 -22 27 -15 14 -25 -28 -20 -38 6 -41 4 -33
-13 4 -10 8 -27 9 -36 0 -12 8 -18 24 -18 15 0 21 4 17 13 -4 6 1 3 9 -8 9
-11 14 -25 11 -33 -2 -7 2 -15 10 -18 16 -7 51 -91 41 -101 -3 -3 -17 -1 -31
5 -14 6 -32 9 -40 6 -8 -4 -15 -2 -15 2 -1 20 -40 55 -52 48 -7 -5 -21 -7 -30
-6 -11 2 -18 -3 -18 -13 0 -12 6 -15 20 -10 28 9 63 -13 57 -35 -5 -19 12 -32
48 -35 11 -1 27 -3 36 -3 9 -1 19 -11 22 -22 6 -23 -11 -27 -19 -5 -8 20 -24
19 -24 0 0 -9 12 -18 30 -22 35 -6 50 -28 50 -70 0 -16 5 -34 12 -41 16 -16
-15 -17 -44 -1 -11 6 -23 8 -26 4 -3 -3 4 -8 16 -12 12 -3 22 -10 22 -15 0 -5
-4 -6 -10 -3 -5 3 -10 1 -10 -4 0 -6 7 -11 15 -11 18 0 58 -81 59 -121 1 -32
16 -38 36 -14 19 22 95 13 96 -11 0 -11 -4 -24 -8 -31 -5 -6 -5 -14 2 -18 5
-3 10 -2 10 4 0 11 47 61 57 61 4 0 28 -18 80 -60 18 -15 40 -12 47 5 7 19 26
20 26 0 0 -9 6 -12 15 -9 21 9 19 19 -7 31 -23 11 -23 11 5 22 16 6 33 9 38 5
5 -3 9 2 9 10 0 9 4 16 9 16 5 0 8 11 5 25 -5 29 5 31 46 10 18 -9 31 -26 35
-45 7 -31 25 -42 25 -15 0 11 13 15 53 15 l52 1 -23 18 c-12 11 -40 22 -62 26
-22 4 -40 10 -40 15 0 4 -9 10 -20 13 -11 3 -20 12 -20 21 0 15 40 44 40 29 0
-4 5 -1 10 7 8 12 10 10 10 -11 0 -47 5 -46 82 24 17 16 46 31 65 34 68 11 0
40 -104 44 -13 1 -23 7 -23 15 0 8 -7 14 -16 14 -12 0 -14 4 -7 12 14 17 23
108 12 108 -5 0 -9 11 -9 25 0 14 -6 36 -13 48 -8 12 -13 28 -12 35 2 6 3 24
4 38 1 21 4 24 15 15 11 -9 15 -6 19 15 3 17 0 27 -10 31 -10 4 -12 15 -8 37
6 29 5 30 -10 12 -8 -11 -15 -27 -15 -35 0 -28 -21 -91 -29 -91 -17 0 -19 28
-5 55 16 31 11 45 -17 45 -15 0 -20 6 -19 23 4 38 1 44 -22 50 l-22 6 21 23
c32 36 42 61 32 80 -6 11 -6 19 1 23 11 7 4 25 -9 25 -4 0 -18 -29 -30 -65
-13 -36 -27 -65 -31 -65 -13 0 -21 33 -10 44 5 5 10 24 10 42 0 19 6 34 15 38
22 8 18 35 -7 46 -21 8 -19 9 12 10 19 1 28 4 20 7 -21 8 -50 34 -50 46 0 6 5
6 13 -1 13 -11 42 10 30 22 -4 3 5 6 18 6 13 0 30 9 37 20 11 18 9 21 -13 30
-15 6 -33 10 -41 10 -16 0 -30 27 -20 38 4 3 16 1 26 -6 26 -16 30 -15 30 7 0
26 23 44 38 29 8 -8 13 -7 18 5 11 30 24 18 24 -23 0 -29 4 -40 15 -40 8 0 15
7 15 15 0 9 9 15 23 15 31 0 54 -62 31 -81 -8 -7 -12 -14 -10 -16 2 -3 -4 -13
-15 -24 -24 -24 -24 -49 0 -56 16 -4 19 -12 15 -41 -2 -21 -2 -31 2 -24 3 6
12 12 20 12 7 0 19 9 26 20 15 23 27 25 63 8 19 -8 25 -17 21 -31 -4 -17 -1
-19 30 -14 37 6 87 -10 78 -25 -3 -4 -10 -6 -15 -3 -5 3 -6 -1 -3 -9 3 -9 13
-16 21 -16 17 0 65 -49 58 -60 -3 -4 2 -10 10 -13 9 -4 12 -1 8 9 -3 9 2 14
15 14 11 0 23 6 25 13 4 7 6 6 6 -4 1 -9 17 -29 36 -43 23 -18 35 -35 35 -52
0 -19 5 -24 24 -24 14 0 28 -5 31 -10 9 -15 -36 -3 -117 32 -82 35 -98 35 -98
4 0 -27 27 -40 74 -37 46 4 86 -18 86 -46 0 -23 2 -24 42 -19 24 4 47 1 55 -6
19 -16 30 -1 15 22 -11 17 -10 20 8 20 11 0 25 -8 31 -18 10 -16 19 -18 52
-12 22 4 43 13 47 20 4 7 12 10 17 7 5 -3 19 14 30 39 11 24 17 46 13 49 -4 3
-7 16 -7 30 0 13 3 23 7 20 4 -3 5 15 3 39 -5 38 -3 44 12 43 13 -2 19 7 22
27 5 38 -5 79 -17 71 -6 -3 -10 2 -10 12 0 10 -3 29 -7 43 -6 25 -6 25 16 6
29 -26 43 -11 31 34 -5 19 -12 47 -15 63 -3 15 -9 27 -14 27 -5 0 -21 -37 -36
-81 -26 -81 -27 -91 -10 -189 5 -31 3 -29 -20 19 -22 44 -26 66 -24 122 2 49
-2 75 -14 93 -20 30 -21 36 -4 36 20 0 33 42 25 80 -4 19 -10 53 -13 75 -6 37
-8 38 -21 20 -8 -10 -14 -25 -14 -33 0 -8 -9 -25 -20 -39 -11 -14 -20 -38 -20
-54 0 -33 -13 -44 -29 -25 -9 10 -7 21 6 44 17 30 17 31 -10 56 -28 26 -36 71
-14 79 10 4 10 7 0 18 -7 7 -13 22 -13 32 0 16 5 18 26 13 22 -6 25 -4 19 14
-4 11 -2 20 4 20 6 0 11 7 11 15 0 8 -4 15 -9 15 -5 0 -11 10 -14 22 -5 18 -8
19 -21 8 -18 -14 -22 -50 -6 -50 6 0 10 -7 10 -16 0 -8 -4 -13 -9 -10 -18 11
-41 -6 -41 -31 0 -14 -6 -37 -14 -51 -8 -15 -18 -36 -21 -47 -6 -17 -10 -15
-26 20 -25 53 -24 62 9 70 15 4 21 10 15 12 -7 3 -13 12 -12 21 0 11 2 12 6 5
2 -7 12 -13 20 -13 14 0 14 2 0 18 -21 23 -22 51 -2 58 8 4 12 10 9 15 -3 5 4
9 15 9 13 0 19 5 15 14 -3 8 -1 17 5 21 6 3 8 17 5 32 -5 20 -4 24 6 18 8 -5
19 -1 28 11 14 19 15 18 7 -1 -3 -11 -9 -35 -12 -53 -7 -39 14 -43 52 -10 27
24 75 35 75 18 0 -5 5 -10 10 -10 11 0 13 30 4 55 -5 13 -8 14 -15 3 -6 -9 -9
-4 -9 15 0 35 14 34 37 -3 9 -16 21 -30 25 -30 4 0 8 -4 8 -10 0 -5 -6 -10
-14 -10 -17 0 -26 -22 -26 -60 0 -16 -9 -52 -20 -80 -22 -57 -26 -85 -9 -74 6
3 14 2 18 -4 4 -7 11 -4 19 8 9 15 9 22 -3 33 -18 18 0 97 22 97 17 0 46 27
62 57 15 30 14 41 -6 46 -14 3 -12 6 10 15 16 7 38 12 51 12 12 0 28 6 35 12
10 11 11 10 7 -2 -2 -8 -7 -34 -10 -57 l-6 -41 31 11 c27 11 32 9 50 -13 l20
-25 -6 26 c-4 18 -1 32 10 43 16 16 16 18 -1 31 -15 11 -17 16 -6 26 10 11 14
11 25 0 10 -10 9 -11 -5 -6 -11 4 -18 2 -18 -4 0 -15 33 -14 48 1 9 9 12 98
12 341 0 276 -2 328 -14 318 -7 -6 -26 -8 -43 -5 -25 5 -31 2 -35 -14 -8 -30
-41 -21 -50 14 -4 16 -13 33 -20 39 -20 15 -99 175 -92 187 3 5 12 7 20 4 8
-3 14 1 14 9 0 17 -26 20 -35 4 -9 -14 -27 12 -90 130 -54 102 -70 113 -124
85 -33 -18 -41 -17 -41 1 0 12 -4 13 -25 3 -20 -9 -33 -8 -65 7 -22 10 -40 22
-40 28 0 5 9 25 21 43 11 19 16 34 10 34 -5 0 -13 -5 -16 -10 -15 -24 -88 -52
-119 -46 -78 16 -145 8 -180 -22 -13 -12 -20 -14 -23 -5 -3 8 -12 9 -27 4 -14
-6 -28 -4 -41 5 -10 8 -15 14 -11 14 5 0 -8 16 -28 35 l-37 34 16 38 c9 20 19
40 24 43 7 5 34 58 81 165 12 28 38 84 58 125 21 41 42 98 48 125 6 28 24 95
39 150 15 55 29 114 31 130 3 29 13 75 32 145 6 19 17 61 26 93 9 32 20 66 25
75 4 9 11 46 15 82 9 93 16 124 29 132 16 9 22 4 58 -53 54 -82 64 -68 64 91
0 132 1 137 34 210 27 58 35 92 39 152 4 70 2 83 -23 133 -16 30 -31 55 -35
55 -3 0 -31 22 -61 50 -29 27 -57 50 -61 50 -5 0 -8 7 -8 15 0 8 -7 15 -14 15
-8 0 -35 13 -59 30 -45 30 -146 58 -202 55 -16 -1 -39 4 -50 10 -17 11 -137
27 -203 27 -13 0 -31 -7 -41 -16 -17 -16 -23 -16 -77 5 -88 32 -152 50 -224
63 -60 11 -65 14 -62 36 4 22 3 22 -13 7 -11 -12 -33 -17 -69 -17 -30 0 -72
-7 -95 -15 l-41 -14 6 34 c5 30 3 35 -15 35 -12 0 -26 -9 -33 -20 -7 -11 -21
-20 -30 -20 -10 0 -18 -4 -18 -9 0 -5 -12 -12 -27 -15 -16 -4 -41 -13 -58 -21
-16 -7 -38 -16 -47 -19 -30 -9 -21 -36 13 -43 l31 -6 -23 -13 c-25 -14 -81
-18 -92 -8 -4 4 2 14 12 23 30 26 54 82 42 94 -6 6 -11 7 -11 2 0 -6 -10 -26
-21 -45 l-21 -34 -13 29 c-6 17 -9 32 -6 35 3 3 11 14 17 25 6 11 23 21 38 23
14 2 26 8 26 13 0 16 -56 10 -73 -8z m277 -48 c4 -10 -2 -19 -17 -24 -24 -9
-33 0 -23 24 7 20 32 19 40 0z m923 -1037 c-3 -8 -6 -5 -6 6 -1 11 2 17 5 13
3 -3 4 -12 1 -19z m25 -45 c2 -5 16 -15 33 -23 26 -14 30 -22 33 -65 2 -28 -1
-74 -8 -103 -14 -62 -75 -173 -123 -223 -18 -19 -48 -55 -67 -81 -19 -26 -45
-52 -57 -59 -27 -14 -97 -144 -89 -165 8 -21 23 -17 30 9 3 12 14 32 26 44 11
12 20 29 20 38 0 10 10 15 31 15 30 0 31 -1 24 -32 -4 -18 -7 -45 -6 -59 1
-19 -10 -37 -39 -63 -22 -20 -47 -36 -56 -36 -8 0 -21 -6 -29 -13 -23 -23 -55
-91 -55 -115 0 -29 36 -82 56 -82 22 0 16 -34 -8 -45 -14 -6 -23 -19 -24 -33
-2 -30 -10 -37 -27 -24 -11 10 -16 1 -27 -46 -22 -102 -43 -145 -100 -203 -61
-63 -113 -85 -176 -73 l-35 7 29 31 c53 55 105 187 81 202 -13 8 -11 49 5 86
8 18 20 53 26 78 7 25 24 79 38 120 27 81 31 101 39 198 5 64 10 70 45 51 17
-9 24 -6 48 23 20 24 25 36 18 46 -13 16 7 42 33 42 11 0 19 5 19 10 0 6 7 10
15 10 27 0 92 38 118 69 14 17 31 47 37 68 7 21 16 43 20 48 4 6 10 48 14 95
10 133 17 173 37 202 11 14 19 33 19 42 0 16 25 23 32 9z m-422 -327 c0 -3 -4
-8 -10 -11 -5 -3 -10 -1 -10 4 0 6 5 11 10 11 6 0 10 -2 10 -4z m42 -64 c18 3
42 9 53 13 18 7 17 5 -4 -18 -40 -44 -109 -47 -131 -6 -16 29 -3 41 25 23 15
-10 37 -14 57 -12z m-771 -3 c22 7 44 10 47 7 7 -7 -38 -56 -51 -56 -18 0 -76
32 -81 45 -4 12 0 12 19 3 19 -8 35 -8 66 1z m-922 -420 c-7 -4 -16 -5 -19 -2
-3 3 1 8 8 10 6 3 13 12 13 21 1 14 2 13 6 -2 3 -10 -1 -22 -8 -27z m1431
-429 c0 -5 -4 -10 -10 -10 -5 0 -10 5 -10 10 0 6 5 10 10 10 6 0 10 -4 10 -10z
m370 -45 c0 -21 -26 -118 -41 -150 -10 -22 -34 -87 -54 -145 -34 -96 -41 -122
-61 -203 -7 -30 -34 -50 -57 -41 -12 4 -13 12 -5 41 12 44 3 252 -11 266 -22
22 -12 37 19 31 21 -5 30 -3 30 6 0 7 18 31 40 52 22 22 40 45 40 51 0 7 16
27 35 44 19 18 35 37 35 43 0 5 7 10 15 10 8 0 15 -2 15 -5z m745 -80 c1 -45
-16 -62 -29 -29 -8 21 -8 59 1 67 17 18 28 3 28 -38z m162 -168 c-2 -7 5 -24
15 -39 20 -29 20 -30 -24 -32 -23 -1 -28 3 -28 21 0 33 19 75 31 68 5 -4 8
-12 6 -18z m-180 -112 c8 -47 8 -53 -5 -43 -11 10 -18 8 -32 -10 -14 -17 -17
-32 -12 -64 10 -68 7 -159 -5 -166 -6 -4 -14 -24 -18 -44 -4 -21 -12 -36 -18
-35 -6 1 -13 -8 -15 -20 -2 -13 -7 -23 -12 -23 -5 0 -15 -3 -23 -6 -11 -4 -13
1 -9 22 5 26 6 26 19 8 13 -18 14 -17 8 9 -5 19 -3 27 6 27 10 0 10 3 1 12 -7
7 -12 21 -11 33 0 11 3 14 6 8 12 -32 23 -7 23 55 0 40 6 79 15 95 11 22 12
34 4 49 -8 15 -6 32 7 71 33 96 56 103 71 22z m-194 -552 c-7 -3 -9 -11 -6
-19 3 -8 1 -20 -5 -27 -14 -18 -24 -274 -11 -299 16 -29 2 -35 -24 -10 -19 20
-22 34 -24 110 -2 107 7 203 18 196 5 -3 9 3 9 12 0 23 30 55 43 47 8 -5 7 -8
0 -10z m153 -98 c-11 -8 -22 -12 -25 -9 -6 6 19 24 34 24 6 -1 1 -7 -9 -15z
m-2655 -8 c-1 -12 -15 -9 -19 4 -3 6 1 10 8 8 6 -3 11 -8 11 -12z m1696 -29
c-3 -8 -6 -5 -6 6 -1 11 2 17 5 13 3 -3 4 -12 1 -19z m-1512 -197 c3 -5 1 -12
-5 -16 -5 -3 -10 1 -10 9 0 18 6 21 15 7z m-26 -101 c11 -6 9 -9 -7 -14 -12
-4 -22 -12 -22 -17 0 -12 -83 1 -92 15 -14 20 -8 27 12 16 23 -12 44 -5 34 12
-7 11 49 2 75 -12z m1750 -31 c-7 -4 -17 -5 -21 -3 -4 3 -8 0 -8 -7 0 -7 -3
-9 -6 -6 -11 11 17 36 33 30 11 -5 12 -7 2 -14z m298 -5 c11 -23 10 -24 -10
-18 -29 9 -30 10 -24 29 9 22 20 18 34 -11z m-277 -45 c0 -5 -7 -6 -15 -3 -8
4 -15 13 -15 21 0 13 3 13 15 3 8 -7 15 -16 15 -21z m125 -16 c-7 -21 -16 -37
-19 -35 -3 1 -10 2 -16 2 -5 0 -10 7 -10 15 0 8 5 15 10 15 6 0 10 9 10 20 0
13 7 20 19 20 17 0 18 -3 6 -37z m145 -4 c0 -5 -4 -8 -9 -4 -6 3 -14 -3 -20
-12 -9 -15 -10 -15 -11 -2 0 9 3 19 7 22 10 11 33 8 33 -4z m440 -9 c0 -5 -4
-10 -9 -10 -6 0 -13 5 -16 10 -3 6 1 10 9 10 9 0 16 -4 16 -10z m-492 -22 c14
-14 16 -48 3 -48 -19 0 -81 42 -75 51 8 13 58 11 72 -3z m62 -14 c0 -8 -4 -14
-10 -14 -24 0 -7 -16 34 -33 25 -10 50 -25 57 -33 9 -11 4 -11 -27 2 -22 9
-43 20 -48 25 -6 5 -18 9 -28 9 -19 0 -24 15 -8 25 6 3 10 15 10 26 0 11 5 17
10 14 6 -3 10 -13 10 -21z m-1512 -31 c-10 -2 -26 -2 -35 0 -10 3 -2 5 17 5
19 0 27 -2 18 -5z m1480 -56 c2 -10 -7 -27 -19 -38 l-24 -20 -8 26 c-5 14 -6
33 -3 41 8 21 50 14 54 -9z m-383 -29 c14 -6 25 -16 25 -22 0 -6 -5 -5 -12 2
-7 7 -20 12 -30 12 -10 0 -18 5 -18 10 0 13 3 13 35 -2z m-455 -37 c0 -4 -6
-15 -13 -26 -13 -16 -14 -15 -9 13 2 18 8 29 13 26 5 -3 9 -9 9 -13z m890 -22
c0 -14 7 -19 25 -19 18 0 25 -5 25 -20 0 -16 7 -20 36 -20 24 0 34 -4 31 -12
-7 -20 -67 -13 -127 15 -48 22 -57 24 -71 11 -17 -16 -33 -19 -25 -5 4 5 -4 7
-15 4 -20 -6 -21 -3 -15 23 10 41 23 51 46 36 25 -15 33 -15 27 1 -3 9 5 12
29 9 25 -3 34 -9 34 -23z m55 21 c8 -13 -5 -13 -25 0 -13 8 -13 10 2 10 9 0
20 -4 23 -10z m-480 -20 c-3 -5 -10 -10 -16 -10 -5 0 -9 5 -9 10 0 6 7 10 16
10 8 0 12 -4 9 -10z m-1095 -20 c13 -8 13 -10 -2 -10 -9 0 -20 5 -23 10 -8 13
5 13 25 0z m-160 -45 c0 -19 5 -35 10 -35 6 0 10 -7 10 -15 0 -18 -43 -20 -58
-2 -7 8 -7 23 1 50 15 47 37 49 37 2z m-185 -15 c-3 -5 -11 -10 -16 -10 -6 0
-7 5 -4 10 3 6 11 10 16 10 6 0 7 -4 4 -10z m27 -22 c-9 -9 -12 -7 -12 12 0
19 3 21 12 12 9 -9 9 -15 0 -24z m848 17 c0 -8 9 -15 20 -15 24 0 26 -13 4
-30 -13 -11 -19 -10 -36 7 -12 13 -18 28 -15 37 8 20 27 21 27 1z m1157 -21
c-3 -3 -12 -4 -19 -1 -8 3 -5 6 6 6 11 1 17 -2 13 -5z m-1974 -52 c10 -11 14
-26 10 -40 -3 -14 1 -30 12 -42 22 -24 12 -44 -16 -30 -10 6 -19 17 -19 25 0
8 -5 15 -11 15 -6 0 -8 7 -5 15 3 9 0 18 -8 21 -7 3 -13 16 -13 30 0 29 26 33
50 6z m817 -39 c0 -14 -4 -21 -10 -18 -5 3 -10 -1 -10 -10 0 -9 -4 -14 -9 -11
-4 3 -6 18 -4 33 3 21 2 24 -6 13 -5 -8 -13 -11 -17 -7 -4 4 1 16 11 27 22 24
45 11 45 -27z m113 28 c15 -8 27 -18 27 -23 0 -11 -56 18 -66 33 -7 12 -6 12
39 -10z m-485 -3 c7 -7 12 -20 12 -31 0 -12 4 -16 13 -11 8 5 7 2 -2 -10 -11
-13 -16 -14 -22 -4 -6 9 -10 8 -15 -5 -3 -9 -15 -17 -25 -17 -10 0 -19 -6 -19
-14 0 -7 -9 -16 -21 -19 -12 -3 -18 -10 -14 -16 4 -7 -4 -11 -20 -11 -32 0
-55 41 -36 64 7 8 10 20 7 25 -7 11 68 54 78 44 3 -4 6 -1 6 5 0 16 43 15 58
0z m-593 -25 c15 -20 9 -43 -10 -43 -13 0 -25 21 -25 46 0 19 20 18 35 -3z
m245 -23 c-12 -23 -21 -25 -38 -8 -18 18 -15 23 18 25 27 2 29 0 20 -17z m653
8 c12 -36 -23 -50 -59 -24 -18 14 -18 15 6 25 34 13 48 13 53 -1z m-859 -47
c3 -5 -1 -12 -10 -15 -22 -9 -24 -8 -24 9 0 16 25 21 34 6z m881 -15 c0 -13
-3 -22 -7 -19 -5 2 -8 13 -8 24 0 10 3 19 8 19 4 0 7 -11 7 -24z m-501 -2 c9
-24 2 -26 -12 -4 -7 11 -8 20 -3 20 5 0 12 -7 15 -16z m-463 -97 c-8 -8 -11
-7 -11 4 0 20 13 34 18 19 3 -7 -1 -17 -7 -23z m1160 -220 c-7 -7 -14 -8 -21
-1 -6 6 -2 10 12 11 16 2 18 -1 9 -10z m-691 -42 c0 -8 -9 -15 -20 -15 -20 0
-26 11 -13 23 12 13 33 7 33 -8z m1236 -119 c-4 -18 -13 -39 -21 -46 -13 -11
-15 -7 -15 20 0 30 27 77 38 66 2 -3 1 -21 -2 -40z m-1651 -6 c3 -5 1 -10 -4
-10 -6 0 -11 5 -11 10 0 6 2 10 4 10 3 0 8 -4 11 -10z"/>
<path d="M1935 2950 c-4 -6 -3 -16 3 -22 6 -6 12 -6 17 2 4 6 3 16 -3 22 -6 6
-12 6 -17 -2z"/>
<path d="M1602 5104 c4 -21 22 -23 26 -1 2 10 -3 17 -13 17 -10 0 -15 -6 -13
-16z"/>
<path d="M1640 5105 c0 -20 69 -20 96 0 17 13 14 14 -38 15 -45 0 -58 -3 -58
-15z"/>
<path d="M1778 5113 c7 -3 16 -2 19 1 4 3 -2 6 -13 5 -11 0 -14 -3 -6 -6z"/>
<path d="M327 5066 c-4 -10 -7 -26 -7 -36 0 -9 -7 -35 -17 -56 -16 -38 -17
-38 -23 -14 -8 32 -37 37 -62 11 -20 -22 -23 -21 -71 12 -18 12 -47 20 -80 21
-49 1 -52 -1 -55 -25 -2 -20 3 -28 25 -38 27 -12 27 -13 8 -27 -10 -8 -25 -14
-32 -14 -7 0 -13 -4 -13 -9 0 -9 232 -5 278 5 15 3 27 16 34 34 5 17 16 30 23
30 26 0 35 73 12 104 -13 18 -14 18 -20 2z"/>
<path d="M518 5074 c-5 -4 -8 -19 -8 -33 1 -23 2 -24 11 -8 11 19 9 53 -3 41z"/>
<path d="M861 5073 c0 -6 -8 -19 -17 -28 -21 -21 -15 -27 9 -10 11 8 17 21 14
32 -3 10 -5 13 -6 6z"/>
<path d="M426 5013 c-3 -8 -1 -23 4 -34 6 -11 8 -24 5 -29 -3 -6 -1 -10 4 -10
11 0 15 12 12 43 -1 9 4 17 13 17 25 0 18 17 -8 22 -16 3 -27 0 -30 -9z"/>
<path d="M483 4946 c-7 -12 -24 -18 -56 -19 -26 -1 -42 -6 -37 -11 13 -13 92
-19 118 -9 23 9 23 9 4 33 -17 22 -20 22 -29 6z"/>
<path d="M560 4925 c0 -8 7 -15 16 -15 14 0 14 3 4 15 -7 8 -14 15 -16 15 -2
0 -4 -7 -4 -15z"/>
<path d="M30 4795 c0 -8 5 -15 10 -15 6 0 10 7 10 15 0 8 -4 15 -10 15 -5 0
-10 -7 -10 -15z"/>
<path d="M71 4784 c0 -11 3 -14 6 -6 3 7 2 16 -1 19 -3 4 -6 -2 -5 -13z"/>
<path d="M1 4754 c0 -11 3 -14 6 -6 3 7 2 16 -1 19 -3 4 -6 -2 -5 -13z"/>
<path d="M118 4663 c7 -3 16 -2 19 1 4 3 -2 6 -13 5 -11 0 -14 -3 -6 -6z"/>
<path d="M121 4454 c0 -11 3 -14 6 -6 3 7 2 16 -1 19 -3 4 -6 -2 -5 -13z"/>
<path d="M150 4460 c0 -5 5 -10 11 -10 5 0 7 5 4 10 -3 6 -8 10 -11 10 -2 0
-4 -4 -4 -10z"/>
<path d="M2697 4184 c-10 -11 -9 -26 2 -19 5 3 12 1 16 -5 3 -5 0 -10 -8 -10
-19 0 -24 -15 -24 -77 -1 -28 -4 -56 -8 -62 -3 -6 0 -14 8 -17 10 -4 13 -19
10 -60 -4 -52 -3 -54 22 -54 26 0 34 -15 13 -23 -10 -4 -10 -6 -1 -6 6 -1 15
4 18 9 3 6 21 10 38 10 21 0 39 8 50 21 14 15 21 18 31 10 17 -14 39 10 30 33
-3 9 -2 16 3 16 6 0 18 27 28 61 15 50 16 62 5 69 -9 5 -11 20 -7 44 5 32 3
37 -26 51 -29 14 -33 14 -43 0 -9 -12 -13 -13 -17 -3 -3 10 -10 10 -33 -3 -16
-9 -34 -14 -41 -12 -6 2 -14 -5 -18 -17 -9 -29 -26 -14 -19 17 5 17 3 24 -4
19 -6 -3 -12 -1 -14 5 -2 5 -7 7 -11 3z m157 -53 c4 -5 0 -12 -6 -14 -7 -3 1
-6 18 -6 19 -1 31 -6 31 -15 0 -8 -6 -12 -12 -9 -7 2 -15 -4 -19 -14 -3 -10
-9 -24 -12 -30 -4 -8 2 -13 15 -13 25 0 26 -3 4 -57 -17 -39 -43 -66 -43 -43
0 6 5 10 11 10 6 0 8 8 4 19 -3 11 1 25 9 34 22 22 9 27 -25 10 -33 -16 -59
-12 -59 11 0 7 -7 16 -15 20 -8 3 -15 16 -14 28 0 22 1 22 9 3 7 -18 9 -16 15
13 4 18 12 35 17 38 6 4 7 -2 3 -16 -6 -20 -3 -18 21 8 31 34 39 38 48 23z
m-114 -111 c0 -21 -25 -4 -28 20 -4 21 -2 22 12 7 9 -8 16 -21 16 -27z m190
31 c0 -6 -4 -13 -10 -16 -5 -3 -10 1 -10 9 0 9 5 16 10 16 6 0 10 -4 10 -9z
m-160 -96 c5 3 11 1 15 -4 3 -6 12 -8 20 -4 22 8 18 -15 -4 -26 -14 -8 -22 -7
-31 4 -7 8 -18 15 -25 15 -11 0 -12 8 -5 40 0 3 5 -3 11 -13 6 -9 14 -15 19
-12z"/>
<path d="M2800 4071 c-9 -18 -8 -21 9 -21 26 0 34 15 17 30 -12 9 -17 7 -26
-9z"/>
<path d="M18 4080 c-7 -43 -4 -59 8 -48 3 3 4 26 2 49 l-3 44 -7 -45z"/>
<path d="M2558 3988 c12 -12 24 -19 28 -15 10 10 -16 37 -34 37 -13 0 -12 -4
6 -22z"/>
<path d="M2590 3924 c0 -8 5 -12 10 -9 6 4 8 11 5 16 -9 14 -15 11 -15 -7z"/>
<path d="M2695 3681 c3 -5 1 -12 -5 -16 -5 -3 -10 -1 -10 4 0 6 -4 11 -10 11
-5 0 -10 -7 -10 -15 0 -9 -6 -12 -15 -9 -8 4 -15 2 -15 -3 0 -5 -10 -9 -21
-10 -31 -3 -34 -10 -13 -30 23 -23 73 -26 82 -4 3 9 14 25 24 35 22 24 23 32
2 40 -8 3 -12 2 -9 -3z"/>
<path d="M2697 3593 c-4 -3 -7 -11 -7 -17 0 -6 5 -5 12 2 6 6 9 14 7 17 -3 3
-9 2 -12 -2z"/>
<path d="M2679 3533 c-1 -5 -1 -12 0 -17 1 -5 -8 -6 -20 -3 -21 6 -59 -11 -59
-25 0 -13 25 -9 58 8 18 8 32 22 32 30 0 14 -9 20 -11 7z"/>
<path d="M3078 3507 c-21 -6 -38 -16 -38 -23 0 -6 -6 -24 -14 -39 -11 -21 -24
-29 -50 -32 -34 -3 -48 8 -26 22 23 14 7 24 -35 23 -29 -2 -41 -6 -35 -12 18
-18 11 -53 -10 -59 -13 -3 -18 -11 -14 -20 3 -9 -3 -17 -18 -22 l-23 -7 24 -7
c14 -3 26 -12 29 -19 4 -13 -13 -15 -43 -3 -26 11 -75 -23 -75 -51 0 -11 -7
-26 -16 -33 -23 -16 -9 -55 19 -55 22 -1 22 -1 3 -15 -13 -10 -23 -12 -30 -5
-18 18 -56 12 -56 -9 0 -30 32 -57 62 -52 4 0 5 -5 2 -12 -2 -7 11 -33 31 -58
19 -24 35 -49 35 -54 0 -6 16 -19 34 -29 40 -21 73 -54 78 -76 2 -8 16 -29 33
-46 l30 -31 18 20 c10 12 15 27 12 35 -9 24 -48 67 -92 103 -24 19 -43 37 -43
42 0 4 10 -1 22 -13 26 -24 35 -25 54 -5 24 24 36 18 29 -14 -3 -16 -2 -32 4
-35 17 -11 41 24 41 59 0 19 5 37 10 40 15 9 12 35 -5 35 -8 0 -19 -9 -25 -20
-12 -23 -32 -18 -23 5 3 9 -1 15 -11 15 -9 0 -16 7 -16 15 0 8 -4 15 -10 15
-5 0 -10 12 -11 28 l0 27 -12 -25 c-6 -14 -14 -27 -18 -30 -3 -3 -12 -22 -20
-42 -14 -42 -20 -45 -39 -23 -10 12 -10 15 4 15 21 0 20 6 -4 30 -20 20 -27
60 -11 60 5 0 19 -12 30 -26 l21 -27 0 26 c0 18 -9 32 -27 44 -16 9 -43 33
-61 52 -25 26 -30 36 -20 43 28 18 53 4 56 -30 3 -34 26 -52 43 -35 6 6 4 14
-6 23 -22 18 -18 30 10 30 14 0 25 4 25 9 0 5 3 16 6 25 5 12 0 16 -17 17 -23
0 -23 1 -4 9 12 4 27 15 34 24 7 9 20 16 27 16 8 0 14 9 14 21 0 13 -6 20 -17
18 -10 -1 -29 -1 -43 0 -22 1 -23 3 -7 12 9 5 22 7 27 4 6 -3 15 -3 21 0 6 4
39 9 74 11 36 1 83 8 105 15 l40 12 0 54 c0 59 -5 62 -82 40z m-168 -177 c0
-5 -2 -10 -4 -10 -3 0 -8 5 -11 10 -3 6 -1 10 4 10 6 0 11 -4 11 -10z m-55
-60 c3 -5 1 -10 -4 -10 -6 0 -11 5 -11 10 0 6 2 10 4 10 3 0 8 -4 11 -10z
m-57 -166 c2 -21 8 -42 14 -45 6 -4 8 -13 6 -20 -2 -7 -14 3 -27 24 -12 20
-26 37 -31 37 -4 0 -11 8 -15 18 -5 14 -4 15 6 5 20 -20 31 -15 24 8 -5 15 -3
20 6 17 8 -3 15 -22 17 -44z m147 -94 c3 -5 3 -10 -2 -10 -4 0 -19 -3 -33 -6
-24 -6 -25 -6 -5 9 24 19 32 21 40 7z m-52 -77 c-7 -2 -19 -2 -25 0 -7 3 -2 5
12 5 14 0 19 -2 13 -5z m51 -55 c-4 -6 -10 -5 -15 3 -14 22 -10 33 6 19 8 -7
12 -17 9 -22z"/>
<path d="M2691 3375 c-24 -13 -33 -33 -31 -65 0 -8 0 -23 1 -33 0 -14 4 -15
20 -7 15 9 19 7 19 -7 1 -16 2 -16 12 2 6 11 16 23 22 27 6 4 11 15 11 25 0
12 15 22 47 33 51 16 61 26 28 26 -11 0 -20 -4 -20 -8 0 -4 -9 -8 -21 -8 -11
0 -29 -5 -39 -10 -20 -11 -39 3 -20 15 12 7 14 25 3 24 -5 -1 -19 -7 -32 -14z
m34 -65 c-3 -5 -10 -10 -16 -10 -5 0 -9 5 -9 10 0 6 7 10 16 10 8 0 12 -4 9
-10z"/>
<path d="M3017 3336 c-35 -16 -25 -27 15 -15 37 10 54 3 38 -16 -9 -11 -6 -16
14 -21 17 -4 26 -13 26 -25 0 -10 5 -19 10 -19 6 0 10 11 10 24 0 13 3 31 6
39 3 10 -8 19 -36 31 -46 18 -46 18 -83 2z"/>
<path d="M2992 3292 c-20 -6 -13 -22 16 -33 15 -6 22 -13 16 -16 -16 -5 -64
14 -64 27 0 5 -4 10 -10 10 -6 0 -6 -9 -1 -22 5 -14 3 -40 -5 -67 -15 -50 -6
-71 28 -71 18 0 19 2 7 16 -10 12 -10 17 0 23 9 6 8 11 -4 21 -22 18 -19 33 4
20 12 -6 22 -6 25 -1 3 5 15 7 27 4 12 -4 25 0 30 8 6 11 11 11 21 1 6 -6 19
-12 28 -12 11 1 10 4 -5 12 -11 6 -30 21 -42 32 -46 43 -60 52 -71 48z"/>
<path d="M132 3180 c0 -14 2 -19 5 -12 2 6 2 18 0 25 -3 6 -5 1 -5 -13z"/>
<path d="M3054 3167 c-6 -18 2 -37 17 -37 10 0 7 35 -4 46 -4 4 -9 0 -13 -9z"/>
<path d="M2618 3135 c-18 -10 -25 -21 -21 -33 6 -24 33 -24 33 0 0 10 4 18 9
18 5 0 11 7 15 15 7 18 -1 18 -36 0z"/>
<path d="M3038 3102 c-7 -10 -20 -21 -28 -25 -10 -4 -8 -6 8 -6 12 -1 22 5 22
13 0 9 8 12 26 8 20 -4 25 -1 22 9 -7 22 -35 22 -50 1z"/>
<path d="M3145 3101 c-3 -5 -1 -12 5 -16 5 -3 10 1 10 9 0 18 -6 21 -15 7z"/>
<path d="M2720 3008 c0 -30 18 -64 56 -104 20 -21 49 -57 63 -79 85 -130 171
-238 231 -288 19 -16 47 -7 36 12 -11 18 9 13 27 -7 23 -25 22 -62 -1 -62 -10
0 -23 5 -30 12 -9 9 -12 8 -12 -8 1 -10 15 -36 33 -56 l32 -38 3 89 2 89 -47
23 c-55 27 -93 64 -93 91 0 20 -53 78 -73 78 -23 1 -64 46 -70 78 -4 19 -2 32
3 32 6 0 10 5 10 10 0 6 -11 8 -25 4 -15 -4 -25 -2 -25 4 0 6 -10 14 -22 17
-31 10 -68 45 -68 65 0 9 -7 25 -15 36 -12 17 -14 17 -15 2z"/>
<path d="M3115 3000 c-3 -5 -4 -14 0 -20 8 -13 35 -1 35 16 0 16 -26 19 -35 4z"/>
<path d="M3086 2924 c-5 -12 -2 -15 10 -10 8 3 21 6 27 6 7 0 6 4 -3 10 -21
14 -27 12 -34 -6z"/>
<path d="M2555 2890 c-10 -16 4 -30 28 -30 20 1 20 2 4 11 -9 6 -15 14 -12 20
4 5 2 9 -4 9 -5 0 -13 -4 -16 -10z"/>
<path d="M3070 2882 c0 -10 -5 -23 -11 -29 -8 -8 -7 -13 1 -18 8 -5 17 -1 22
9 8 14 13 15 24 5 10 -8 18 -9 25 -2 7 7 1 17 -19 32 -37 26 -42 26 -42 3z"/>
<path d="M33 2827 c4 -10 7 -23 7 -28 0 -5 5 -9 10 -9 16 0 12 26 -7 41 -15
12 -16 12 -10 -4z"/>
<path d="M3087 2791 c3 -12 10 -21 15 -21 13 0 6 32 -9 37 -7 3 -9 -3 -6 -16z"/>
<path d="M3012 2760 c7 -11 18 -20 25 -20 7 0 13 -5 13 -11 0 -5 5 -7 11 -4
13 8 -28 55 -48 55 -11 0 -11 -4 -1 -20z"/>
<path d="M3080 2745 c7 -9 15 -13 17 -11 7 7 -7 26 -19 26 -6 0 -6 -6 2 -15z"/>
<path d="M3107 2703 c-12 -3 -17 -12 -15 -26 4 -29 61 -32 66 -3 4 16 -14 38
-28 35 -3 -1 -13 -3 -23 -6z"/>
<path d="M2 2465 c0 -16 2 -22 5 -12 2 9 2 23 0 30 -3 6 -5 -1 -5 -18z"/>
<path d="M35 2335 c2 -11 8 -33 12 -49 l9 -29 28 34 28 33 -23 10 c-17 8 -24
7 -27 -2 -3 -9 -8 -8 -18 5 -13 17 -13 17 -9 -2z"/>
<path d="M140 2310 c0 -5 4 -10 9 -10 6 0 13 5 16 10 3 6 -1 10 -9 10 -9 0
-16 -4 -16 -10z"/>
<path d="M3148 1520 c-3 -16 -1 -30 4 -30 4 0 8 14 8 30 0 17 -2 30 -4 30 -2
0 -6 -13 -8 -30z"/>
<path d="M2986 1489 c-10 -50 -7 -59 14 -59 17 0 20 7 20 45 0 53 -24 63 -34
14z"/>
<path d="M3133 1434 c1 -21 6 -30 15 -27 16 7 15 15 -3 39 -13 18 -14 17 -12
-12z"/>
<path d="M2857 1399 c7 -7 15 -10 18 -7 3 3 -2 9 -12 12 -14 6 -15 5 -6 -5z"/>
<path d="M2946 1342 c-2 -4 11 -6 30 -4 19 2 34 6 34 8 0 8 -59 4 -64 -4z"/>
<path d="M2930 1311 c0 -6 5 -13 10 -16 6 -3 10 1 10 9 0 9 -4 16 -10 16 -5 0
-10 -4 -10 -9z"/>
<path d="M3101 1301 c-18 -18 -29 -51 -17 -51 9 0 48 61 43 66 -3 3 -15 -4
-26 -15z"/>
<path d="M2917 1253 c-3 -5 -8 -23 -12 -42 -5 -26 -4 -32 6 -29 8 3 15 20 16
41 1 36 -2 44 -10 30z"/>
<path d="M10 1113 c0 -5 4 -14 9 -21 6 -10 10 -9 14 7 3 14 0 21 -9 21 -8 0
-14 -3 -14 -7z"/>
<path d="M3036 1077 c3 -10 9 -15 12 -12 3 3 0 11 -7 18 -10 9 -11 8 -5 -6z"/>
<path d="M1996 1015 c-10 -26 -15 -52 -11 -63 7 -14 9 -13 14 8 6 21 13 25 43
25 20 0 34 3 31 8 -2 4 0 7 5 7 16 0 1 38 -16 43 -10 3 -24 8 -32 11 -11 4
-20 -6 -34 -39z"/>
<path d="M3026 1024 c-4 -9 -4 -19 -1 -22 2 -3 7 3 11 12 4 9 4 19 1 22 -2 3
-7 -3 -11 -12z"/>
<path d="M10 985 c7 -9 26 -25 43 -37 24 -17 31 -18 38 -7 14 23 11 28 -27 44
-49 20 -71 20 -54 0z"/>
<path d="M208 883 c6 -2 18 -2 25 0 6 3 1 5 -13 5 -14 0 -19 -2 -12 -5z"/>
<path d="M2041 874 c0 -11 3 -14 6 -6 3 7 2 16 -1 19 -3 4 -6 -2 -5 -13z"/>
<path d="M2985 874 c-4 -10 -11 -27 -16 -36 -5 -10 -9 -30 -9 -45 l0 -27 17
24 c9 14 20 27 24 30 9 6 6 57 -4 66 -4 4 -9 -2 -12 -12z"/>
<path d="M1 785 c-2 -69 0 -75 18 -75 28 0 36 18 17 39 -16 17 -15 19 9 25 34
9 32 22 -7 35 -23 8 -29 14 -20 20 10 6 10 10 -1 19 -12 10 -15 0 -16 -63z"/>
<path d="M2110 839 c0 -5 5 -7 10 -4 6 3 10 8 10 11 0 2 -4 4 -10 4 -5 0 -10
-5 -10 -11z"/>
<path d="M2086 812 c-4 -6 -1 -22 5 -34 15 -28 23 -11 11 22 -6 15 -11 19 -16
12z"/>
<path d="M2270 769 c0 -5 5 -7 10 -4 6 3 10 8 10 11 0 2 -4 4 -10 4 -5 0 -10
-5 -10 -11z"/>
<path d="M2320 756 c0 -10 9 -16 21 -16 24 0 21 23 -4 28 -10 2 -17 -3 -17
-12z"/>
<path d="M2943 714 c-8 -18 -8 -24 1 -24 13 0 36 20 36 31 0 19 -27 14 -37 -7z"/>
<path d="M2010 710 c0 -5 5 -10 10 -10 6 0 10 5 10 10 0 6 -4 10 -10 10 -5 0
-10 -4 -10 -10z"/>
<path d="M1140 670 c0 -5 5 -10 10 -10 6 0 10 5 10 10 0 6 -4 10 -10 10 -5 0
-10 -4 -10 -10z"/>
<path d="M2270 660 c0 -5 5 -10 10 -10 6 0 10 5 10 10 0 6 -4 10 -10 10 -5 0
-10 -4 -10 -10z"/>
<path d="M35 650 c-3 -6 4 -14 17 -19 27 -10 33 -7 25 14 -7 17 -33 20 -42 5z"/>
<path d="M105 650 c-3 -5 -1 -10 4 -10 6 0 11 5 11 10 0 6 -2 10 -4 10 -3 0
-8 -4 -11 -10z"/>
<path d="M986 629 c-3 -18 -13 -37 -21 -43 -14 -10 -14 -13 -1 -31 15 -19 15
-19 16 6 0 20 6 28 25 33 15 4 23 11 19 17 -4 6 0 15 7 20 12 8 12 11 -1 19
-26 17 -37 11 -44 -21z"/>
<path d="M1177 653 c-3 -5 -2 -15 2 -22 7 -10 10 -10 16 -1 4 6 3 16 -3 22 -5
5 -12 6 -15 1z"/>
<path d="M2335 640 c-3 -5 1 -10 9 -10 9 0 16 5 16 10 0 6 -4 10 -9 10 -6 0
-13 -4 -16 -10z"/>
<path d="M2916 633 c-12 -12 -6 -61 10 -74 14 -11 18 -10 30 6 8 10 14 24 14
31 0 14 -45 45 -54 37z"/>
<path d="M2237 619 c-9 -5 -22 -7 -27 -4 -16 10 -12 -12 6 -29 19 -19 37 -20
86 -3 l38 13 -35 17 c-41 20 -44 20 -68 6z"/>
<path d="M2368 599 c-10 -5 -18 -20 -18 -33 0 -18 6 -22 35 -23 39 -1 47 12
13 23 l-21 6 22 12 c12 7 18 15 15 19 -10 10 -26 8 -46 -4z"/>
<path d="M115 590 c3 -5 8 -10 11 -10 2 0 4 5 4 10 0 6 -5 10 -11 10 -5 0 -7
-4 -4 -10z"/>
<path d="M1097 581 c-4 -17 -3 -21 5 -13 5 5 8 16 6 23 -3 8 -7 3 -11 -10z"/>
<path d="M2046 575 c-3 -8 -1 -15 4 -15 6 0 10 7 10 15 0 8 -2 15 -4 15 -2 0
-6 -7 -10 -15z"/>
<path d="M1112 545 c-14 -29 -16 -65 -4 -65 16 1 41 48 35 69 -7 28 -17 27
-31 -4z"/>
<path d="M1165 560 c-3 -5 1 -10 9 -10 9 0 16 5 16 10 0 6 -4 10 -9 10 -6 0
-13 -4 -16 -10z"/>
<path d="M3093 558 c-14 -17 -5 -65 13 -72 11 -4 12 -1 5 13 -7 12 -7 21 1 29
6 6 7 16 1 27 -8 13 -12 14 -20 3z"/>
<path d="M1200 553 c0 -5 9 -14 20 -21 11 -7 20 -8 20 -2 0 5 -9 14 -20 20
-11 6 -20 7 -20 3z"/>
<path d="M2525 549 c-4 -6 -5 -13 -2 -16 7 -7 27 6 27 18 0 12 -17 12 -25 -2z"/>
<path d="M2570 544 c0 -17 22 -14 28 4 2 7 -3 12 -12 12 -9 0 -16 -7 -16 -16z"/>
<path d="M2235 530 c-3 -5 -1 -11 5 -15 12 -7 50 3 50 13 0 10 -49 11 -55 2z"/>
<path d="M2516 499 c-9 -13 -16 -33 -16 -44 1 -20 1 -20 16 0 8 11 29 25 47
32 23 8 26 12 12 12 -12 1 -26 6 -32 12 -8 8 -15 4 -27 -12z"/>
<path d="M105 467 c-14 -22 -20 -25 -27 -15 -7 9 -8 2 -4 -19 6 -37 -5 -48
-46 -45 l-28 2 1 -67 c1 -58 2 -63 9 -30 7 36 20 62 20 39 0 -21 15 -13 34 19
13 23 21 27 31 19 9 -8 14 -5 18 10 3 11 1 18 -4 14 -14 -8 -11 9 7 45 21 42
13 64 -11 28z"/>
<path d="M2887 460 c3 -11 9 -17 14 -15 10 7 1 35 -11 35 -5 0 -6 -9 -3 -20z"/>
<path d="M2617 463 c-10 -9 -9 -23 2 -23 5 0 11 7 15 15 5 15 -5 20 -17 8z"/>
<path d="M2570 420 c0 -5 4 -10 9 -10 6 0 13 5 16 10 3 6 -1 10 -9 10 -9 0
-16 -4 -16 -10z"/>
<path d="M2185 398 c-22 -11 -46 -24 -54 -27 -8 -4 -21 -16 -28 -28 -14 -20
-13 -21 30 -18 24 1 54 6 66 10 22 7 29 25 9 25 -6 0 -8 3 -4 7 4 4 15 8 24 8
18 0 24 36 7 41 -5 2 -28 -6 -50 -18z"/>
<path d="M2670 404 c0 -8 5 -12 10 -9 6 3 10 10 10 16 0 5 -4 9 -10 9 -5 0
-10 -7 -10 -16z"/>
<path d="M1050 400 c0 -5 5 -10 10 -10 6 0 10 5 10 10 0 6 -4 10 -10 10 -5 0
-10 -4 -10 -10z"/>
<path d="M2296 383 c-11 -11 -6 -23 9 -23 8 0 15 4 15 9 0 13 -16 22 -24 14z"/>
<path d="M130 350 c0 -5 -13 -7 -29 -5 -32 4 -47 -15 -28 -34 9 -9 8 -14 -3
-21 -53 -32 -59 -41 -48 -70 6 -19 15 -27 24 -23 10 4 11 10 3 25 -15 27 -5
33 36 21 29 -9 35 -9 35 3 0 10 12 14 40 14 47 0 53 19 15 44 -14 9 -25 25
-25 36 0 11 -4 20 -10 20 -5 0 -10 -4 -10 -10z"/>
<path d="M827 324 c-4 -4 -7 -14 -7 -23 0 -11 3 -12 11 -4 6 6 10 16 7 23 -2
6 -7 8 -11 4z"/>
<path d="M1001 307 c-7 -10 -10 -17 -6 -17 4 0 -3 -16 -15 -36 -15 -26 -18
-40 -11 -47 8 -8 11 -7 11 1 0 7 7 12 15 12 8 0 15 5 15 10 0 6 -4 10 -10 10
-11 0 -1 32 13 41 5 4 7 14 5 24 -3 17 -4 17 -17 2z"/>
<path d="M2287 293 c-12 -11 -8 -23 7 -23 8 0 16 7 20 15 5 15 -14 21 -27 8z"/>
<path d="M2449 275 c0 -11 -2 -32 -3 -47 -3 -40 12 -34 20 8 4 22 2 40 -5 47
-8 8 -11 6 -12 -8z"/>
<path d="M603 263 c-16 -6 -17 -35 -1 -51 9 -9 7 -12 -9 -12 -14 0 -29 -13
-43 -35 -12 -20 -28 -34 -35 -33 -8 2 -13 -1 -12 -7 1 -5 7 -8 12 -6 43 16 49
12 22 -12 -25 -22 -28 -31 -22 -58 l7 -32 20 32 c23 36 38 39 56 11 14 -22 42
-27 42 -7 0 7 -5 18 -11 24 -7 7 -9 19 -6 27 9 22 8 26 0 26 -5 0 -8 -6 -8
-12 0 -18 -34 -22 -40 -5 -3 7 -1 26 4 41 10 26 11 26 36 10 24 -16 25 -15 25
5 0 14 6 21 20 21 17 0 19 3 11 19 -14 25 -4 32 28 20 26 -10 26 -10 6 9 -21
19 -79 33 -102 25z"/>
<path d="M2260 246 c0 -8 -3 -23 -6 -33 -3 -10 2 -7 10 7 18 30 20 40 6 40 -5
0 -10 -6 -10 -14z"/>
<path d="M2306 216 c3 -8 12 -12 20 -9 21 8 17 23 -6 23 -13 0 -18 -5 -14 -14z"/>
<path d="M517 203 c-4 -3 -7 -16 -6 -27 0 -19 1 -19 10 3 10 24 8 36 -4 24z"/>
<path d="M373 193 c-7 -2 -13 -11 -13 -18 0 -7 -6 -16 -12 -18 -7 -3 -4 -6 7
-6 23 0 55 21 55 38 0 11 -15 13 -37 4z"/>
<path d="M1191 161 c-8 -5 -9 -11 -3 -15 5 -3 12 1 16 9 6 17 6 18 -13 6z"/>
<path d="M1340 142 c0 -5 -10 -14 -22 -20 -21 -10 -22 -11 -3 -11 20 0 55 20
55 33 0 3 -7 6 -15 6 -8 0 -15 -4 -15 -8z"/>
<path d="M2500 136 c0 -9 6 -16 13 -16 16 0 46 20 30 20 -6 0 -18 3 -27 6 -11
4 -16 1 -16 -10z"/>
<path d="M920 126 c0 -2 9 -6 20 -9 11 -3 18 -1 14 4 -5 9 -34 13 -34 5z"/>
<path d="M1486 75 c-3 -8 -2 -15 3 -15 5 0 14 7 21 15 10 12 10 15 -3 15 -8 0
-17 -7 -21 -15z"/>
<path d="M118 63 c7 -3 16 -2 19 1 4 3 -2 6 -13 5 -11 0 -14 -3 -6 -6z"/>
<path d="M888 43 c-26 -31 -30 -43 -15 -43 8 0 20 13 26 30 12 35 10 37 -11
13z"/>
<path d="M2050 29 c0 -5 5 -7 10 -4 6 3 10 8 10 11 0 2 -4 4 -10 4 -5 0 -10
-5 -10 -11z"/>
<path d="M1459 14 c-12 -14 -11 -16 5 -13 11 2 21 10 24 17 5 17 -13 15 -29
-4z"/>
<path d="M1580 20 c-13 -8 -12 -10 3 -10 9 0 17 5 17 10 0 12 -1 12 -20 0z"/>
<path d="M268 3 c6 -2 18 -2 25 0 6 3 1 5 -13 5 -14 0 -19 -2 -12 -5z"/>
</g>
</svg>
